<?xml version="1.0" standalone="no"?>
<!DOCTYPE svg PUBLIC "-//W3C//DTD SVG 20010904//EN"
 "http://www.w3.org/TR/2001/REC-SVG-20010904/DTD/svg10.dtd">
<svg version="1.0" xmlns="http://www.w3.org/2000/svg"
 width="32.000000pt" height="32.000000pt" viewBox="0 0 32.000000 32.000000"
 preserveAspectRatio="xMidYMid meet">

<g transform="translate(0.000000,32.000000) scale(0.100000,-0.100000)"
fill="#4C9969" stroke="none">
<path d="M73 250 c-17 -10 -37 -28 -42 -39 -18 -32 -13 -96 9 -123 30 -39 67
-49 171 -46 l94 3 3 73 3 72 -74 0 c-64 0 -76 -3 -95 -23 -12 -13 -22 -26 -22
-30 0 -4 25 -7 55 -7 30 0 55 -4 55 -10 0 -17 -107 -12 -124 6 -43 42 -6 74
85 74 64 0 72 2 94 28 13 15 25 30 25 35 0 4 -46 7 -102 7 -84 0 -109 -4 -135
-20z"/>
</g>
</svg>
