<?xml version="1.0" encoding="utf-8"?>
<!-- Generator: Adobe Illustrator 17.1.0, SVG Export Plug-In . SVG Version: 6.00 Build 0)  -->
<!DOCTYPE svg PUBLIC "-//W3C//DTD SVG 1.1//EN" "http://www.w3.org/Graphics/SVG/1.1/DTD/svg11.dtd">
<svg version="1.1" id="Layer_1" xmlns="http://www.w3.org/2000/svg" xmlns:xlink="http://www.w3.org/1999/xlink" x="0px" y="0px"
	 viewBox="0 0 640 640" enable-background="new 0 0 640 640" xml:space="preserve">
<g>
	<path fill="#333B8C" d="M138.6,314.5h28.2V342h-30.2c-3.8,0-7.4-0.6-10.6-1.7c-3.3-1.1-6.1-2.7-8.4-4.7c-2.4-2-4.2-4.4-5.5-7.1
		c-1.3-2.7-2-5.7-2-8.9c0-3.2,0.7-6.1,2-8.8c1.3-2.7,3.2-4.9,5.5-6.9c2.3-1.9,5.2-3.4,8.4-4.4c3.3-1,6.8-1.5,10.6-1.5h31.6
		l-8.8,11.5h-22.7c-1.8,0-3.6,0.3-5.1,0.8c-1.6,0.5-3,1.3-4.1,2.2c-1.2,1-2.1,2.1-2.7,3.4c-0.7,1.3-1,2.7-1,4.3c0,1.6,0.3,3,1,4.3
		c0.6,1.3,1.5,2.4,2.7,3.3c1.2,0.9,2.5,1.6,4.1,2.1c1.6,0.5,3.3,0.8,5.2,0.8h16.7v-6.4h-22.8L138.6,314.5z"/>
	<path fill="#333B8C" d="M201,342l7.9-11.2h9.5l-12.4-18.1L185.5,342h-16.1l28.3-39.9c0.9-1.3,2.1-2.4,3.5-3.4
		c1.4-1,3.2-1.5,5.3-1.5c2.1,0,3.8,0.5,5.2,1.4c1.4,0.9,2.6,2.1,3.5,3.5l27.5,39.9H201z"/>
	<path fill="#333B8C" d="M357.9,342l7.9-11.2h9.5L363,312.8L342.3,342h-16.1l28.3-39.9c0.9-1.3,2.1-2.4,3.5-3.4
		c1.4-1,3.2-1.5,5.3-1.5c2.1,0,3.8,0.5,5.2,1.4c1.4,0.9,2.6,2.1,3.5,3.5l27.5,39.9H357.9z"/>
	<path fill="#333B8C" d="M500.4,342l7.9-11.2h9.5l-12.4-18.1L484.8,342h-16.1l28.3-39.9c0.9-1.3,2.1-2.4,3.5-3.4
		c1.4-1,3.2-1.5,5.3-1.5c2.1,0,3.8,0.5,5.2,1.4c1.4,0.9,2.6,2.1,3.5,3.5L542,342H500.4z"/>
	<path fill="#333B8C" d="M277.5,314.4c1,1.7,1.8,3.2,2.5,4.5c0.7,1.3,1.4,2.4,1.9,3.5c0.5,1,1,1.9,1.4,2.8c0.4,0.8,0.8,1.6,1.2,2.4
		c0.4-0.8,0.7-1.6,1.2-2.4c0.4-0.8,0.9-1.7,1.4-2.8c0.5-1,1.2-2.2,1.9-3.5c0.7-1.3,1.6-2.8,2.5-4.5l7.1-12.5c0.8-1.4,1.8-2.5,3-3.4
		c1.2-0.9,2.7-1.3,4.5-1.3c1.7,0,3.3,0.5,4.6,1.5c1.4,1,2.4,2.5,3,4.6L325,342h-13.6l-4.2-15.4c-0.7-2.5-1.3-4.7-1.8-6.6
		c-0.5-1.9-0.9-3.7-1.3-5.5c-0.7,1.5-1.6,3.2-2.5,5.1c-0.9,1.9-2.1,4.2-3.6,7.1l-5.9,11.1c-0.6,1.1-1.2,2-1.7,2.6
		c-0.6,0.6-1.2,1.1-1.8,1.5c-0.6,0.4-1.3,0.6-2,0.7c-0.7,0.1-1.5,0.2-2.3,0.2c-0.8,0-1.6-0.1-2.3-0.2c-0.7-0.1-1.4-0.3-2-0.7
		c-0.6-0.4-1.2-0.8-1.8-1.5c-0.6-0.6-1.2-1.5-1.7-2.6l-5.9-11.1c-0.8-1.5-1.5-2.8-2.1-4c-0.6-1.2-1.2-2.3-1.7-3.2
		c-0.5-0.9-0.9-1.8-1.3-2.6c-0.4-0.8-0.7-1.6-1.1-2.3c-0.4,1.8-0.8,3.6-1.3,5.5c-0.5,1.9-1.1,4.1-1.7,6.6l-4.2,15.4h-13.4l11.4-38.8
		c0.6-2.1,1.6-3.6,3-4.6c1.4-1,3-1.5,4.7-1.5c1.8,0,3.2,0.4,4.4,1.3c1.2,0.8,2.2,2,3,3.4L277.5,314.4z"/>
	<path fill="#333B8C" d="M466.5,298l-13.9,12.7c-1.5,1.4-2.8,2.6-3.9,3.5c-1.1,0.9-2,1.7-2.7,2.4c-0.7,0.6-1.4,1.2-1.9,1.6
		c-0.5,0.4-1,0.8-1.4,1.1c0.4,0.3,0.8,0.6,1.3,1c0.5,0.4,1.1,1,1.9,1.7c0.8,0.7,1.8,1.6,3,2.7c1.2,1.1,2.7,2.5,4.5,4.2l14.1,13.2
		h-19.2l-15-14.6L417.8,342h-16.9l14.4-13.2c1.7-1.5,3.1-2.8,4.2-3.9c1.1-1,2.1-1.9,2.8-2.5c0.7-0.7,1.4-1.2,1.9-1.6
		c0.5-0.4,1-0.7,1.4-1.1c-0.4-0.3-0.8-0.6-1.3-1c-0.5-0.4-1.1-0.9-1.8-1.6c-0.7-0.7-1.7-1.5-2.8-2.6c-1.1-1-2.6-2.4-4.3-4L401.7,298
		h18.9l14,13.7l14.2-13.7H466.5z"/>
</g>
</svg>
