<?xml version="1.0" standalone="no"?>
<!DOCTYPE svg PUBLIC "-//W3C//DTD SVG 20010904//EN"
 "http://www.w3.org/TR/2001/REC-SVG-20010904/DTD/svg10.dtd">
<svg version="1.0" xmlns="http://www.w3.org/2000/svg"
 width="1070.000000pt" height="134.000000pt" viewBox="0 0 1070.000000 134.000000"
 preserveAspectRatio="xMidYMid meet">
<metadata>
Created by potrace 1.15, written by Peter Selinger 2001-2017
</metadata>
<g transform="translate(0.000000,134.000000) scale(0.100000,-0.100000)"
fill="#000000" stroke="none">
<path d="M96 1291 c-15 -10 -37 -32 -47 -47 -18 -27 -19 -56 -19 -531 0 -360
3 -503 11 -503 6 0 77 18 158 39 780 211 1702 402 2436 505 1524 216 2893 201
4126 -44 268 -53 495 -107 718 -170 79 -22 146 -38 149 -36 15 16 -268 336
-516 584 l-222 222 -3383 0 c-3296 0 -3383 -1 -3411 -19z"/>
<path d="M7161 1073 c233 -236 363 -381 469 -520 42 -56 63 -75 91 -83 89 -25
275 -90 529 -185 654 -245 791 -268 1351 -230 407 28 679 56 937 97 l132 21 0
525 0 525 -44 43 -43 44 -1828 0 -1828 0 234 -237z m1233 -175 c-27 -48 -47
-58 -117 -58 -75 0 -107 -15 -107 -51 0 -34 28 -49 91 -49 46 0 59 3 59 15 0
12 -13 15 -55 15 l-56 0 18 25 c17 23 23 25 93 22 l75 -2 0 -70 0 -70 -85 -3
c-61 -2 -97 2 -128 14 -79 30 -106 114 -56 173 33 40 67 49 182 50 72 1 92 -2
86 -11z m241 -4 c19 -20 133 -188 141 -209 5 -13 -10 -15 -95 -15 -56 0 -101
4 -101 9 0 16 41 61 56 61 8 0 14 2 14 5 0 9 -45 75 -51 75 -4 0 -30 -34 -58
-75 -50 -72 -54 -75 -92 -75 -21 0 -39 2 -39 5 0 9 143 210 158 223 22 17 47
15 67 -4z m281 8 c7 -4 29 -38 49 -75 21 -37 40 -65 43 -62 4 3 22 34 42 67
62 108 88 105 124 -14 14 -46 29 -98 32 -116 7 -33 6 -33 -27 -30 -32 3 -34 6
-53 71 l-19 68 -37 -68 c-32 -60 -40 -68 -66 -68 -26 0 -33 8 -65 69 l-37 69
-16 -59 c-9 -32 -19 -65 -21 -71 -6 -17 -65 -17 -65 0 0 18 50 188 61 209 10
19 36 23 55 10z m607 -112 l78 -115 -102 -3 c-56 -1 -104 -1 -106 2 -10 10 39
66 58 66 18 0 17 3 -7 40 -15 22 -29 40 -33 40 -3 -1 -29 -33 -56 -73 -46 -65
-54 -72 -88 -75 -20 -2 -37 1 -37 6 0 5 28 49 61 98 120 175 123 175 232 14z
m219 83 l37 -36 41 36 c32 30 48 37 80 37 22 0 40 -3 40 -7 0 -5 -25 -30 -56
-57 l-56 -49 63 -63 63 -64 -47 0 c-41 0 -53 5 -91 40 l-43 39 -38 -39 c-32
-33 -46 -40 -77 -40 -21 0 -38 4 -38 9 0 5 26 33 57 61 l58 53 -58 52 c-31 29
-57 55 -57 59 0 3 19 6 42 6 35 0 49 -6 80 -37z m440 25 c21 -18 148 -203 148
-217 0 -7 -34 -11 -100 -11 -55 0 -100 3 -100 6 0 18 44 64 61 64 18 0 17 3
-7 40 -15 22 -29 40 -33 40 -3 0 -29 -33 -56 -73 -46 -65 -54 -72 -88 -75 -23
-2 -37 1 -37 8 0 6 21 41 47 78 105 151 127 169 165 140z"/>
<path d="M4105 870 c-1119 -57 -2323 -246 -3595 -565 -119 -30 -227 -59 -240
-64 l-25 -10 27 0 c14 -1 165 12 335 29 1343 130 2516 182 3373 150 584 -22
2090 -133 3730 -275 470 -41 920 -79 1000 -85 80 -6 157 -12 173 -14 48 -5 29
12 -27 24 -100 21 -315 90 -519 166 -379 142 -492 181 -717 247 -718 211
-1343 322 -2150 383 -242 18 -1108 27 -1365 14z"/>
</g>
</svg>
